# xmcd
#
# Track frame offsets:
#	150
#	16733
#	31056
#	44160
#	58185
#	68878
#	69595
#	85936
#	96922
#	110372
#	122792
#	135307
#	148781
#	165150
#	178207
#	178800
#
# Disc length: 2577 seconds
#
# Revision: 0
# Processed by: cddbd v1.5.2PL0 Copyright (c) Steve Scherf et al.
# Submitted via: audiograbber 1.83.01
#
DISCID=e00a0f10
DTITLE=Hillcrest - Hillcrest Pure Country 42
DYEAR=2008
DGENRE=Country
TTITLE0=Johnny Lyon  - Winds of Change
TTITLE1=Deanne Moore  - Cowboy Talkin'
TTITLE2=Jeff Chance  - I'm Goin' Home
TTITLE3=Kathy Kane  - Dancin' to the Radio
TTITLE4=Vannatta  - Johnny Play It Again
TTITLE5=Kate Russell  - Kate Russell  ID
TTITLE6=Kate Russell  - Talk Is Cheap
TTITLE7=Lonnie Spiker  - I Came In Here Laughing
TTITLE8=Sheryl Higgs  - 500 Miles of Real Bad Road
TTITLE9=Declan Nerney  - Stop The World and Let Me Off
TTITLE10=Ann Pascoe  - San Antonio Stroll
TTITLE11=J D Pederson  - She Calls Me Haggard
TTITLE12=Jayne Denham  - Country Girl with a Rock and Roll Heart
TTITLE13=Manson Grant  - The Best Years of My Life
TTITLE14=Declan Burke  - Declan Burke ID
TTITLE15=Declan Burke  - Irish Through and Through
EXTD=
EXTT0=
EXTT1=
EXTT2=
EXTT3=
EXTT4=
EXTT5=
EXTT6=
EXTT7=
EXTT8=
EXTT9=
EXTT10=
EXTT11=
EXTT12=
EXTT13=
EXTT14=
EXTT15=
PLAYORDER=
